<?xml version="1.0" standalone="no"?>
<!DOCTYPE svg PUBLIC "-//W3C//DTD SVG 20010904//EN"
 "http://www.w3.org/TR/2001/REC-SVG-20010904/DTD/svg10.dtd">
<svg version="1.0" xmlns="http://www.w3.org/2000/svg"
 width="614.000000pt" height="555.000000pt" viewBox="0 0 614.000000 555.000000"
 preserveAspectRatio="xMidYMid meet">

<g transform="translate(0.000000,555.000000) scale(0.100000,-0.100000)"
fill="#000000" stroke="none">
<path d="M2760 4377 c-36 -13 -76 -29 -90 -37 -14 -7 -101 -43 -195 -80 -93
-37 -255 -102 -360 -145 -104 -43 -206 -83 -225 -90 -19 -7 -82 -33 -140 -58
-58 -24 -141 -58 -185 -76 -44 -17 -95 -40 -113 -51 l-32 -20 0 -1910 0 -1910
1748 0 1749 0 -2 33 c-1 17 -6 50 -12 72 -5 22 -8 69 -6 105 2 36 4 136 5 223
1 123 4 157 15 157 15 0 18 16 4 24 -5 3 -7 34 -6 68 7 154 7 186 1 196 -3 6
-2 13 4 17 9 5 4 90 -6 106 -2 4 0 10 5 14 15 9 9 46 -7 40 -11 -4 -12 3 -7
35 4 21 3 45 -1 52 -4 7 -16 -28 -26 -83 -11 -51 -21 -105 -24 -118 -8 -37
-67 -160 -106 -222 -50 -77 -151 -184 -221 -231 -84 -57 -231 -124 -304 -138
-41 -8 -112 -11 -200 -7 -138 5 -173 12 -270 57 -24 11 -47 20 -52 20 -17 0
-215 137 -245 169 -30 31 -30 31 -6 31 13 0 31 6 39 14 14 13 22 9 64 -30 27
-24 55 -44 63 -44 8 0 14 -4 14 -10 0 -5 7 -7 15 -4 8 4 17 -1 21 -10 3 -8 22
-18 42 -22 21 -4 55 -15 77 -24 57 -26 95 -32 227 -37 95 -4 132 -1 198 16
103 26 188 67 272 130 37 28 70 51 73 51 3 0 5 -8 5 -18 0 -22 30 -52 52 -52
19 0 48 31 48 52 0 22 -33 48 -60 48 l-23 0 19 23 c53 60 42 54 -27 -14 -41
-41 -104 -94 -140 -117 -71 -47 -213 -97 -302 -108 -77 -9 -164 3 -164 22 0
10 14 14 58 14 78 0 215 27 258 51 20 11 27 17 16 14 -42 -14 -174 -17 -236
-6 -84 15 -236 72 -310 117 -89 54 -177 147 -237 249 -66 113 -91 194 -99 315
-15 241 91 465 286 605 113 82 306 138 471 137 76 0 82 1 60 13 -14 7 -52 21
-85 31 -33 10 -69 24 -80 31 -18 12 -16 13 20 13 76 0 227 -53 307 -107 70
-46 72 -48 65 -36 -13 20 -120 86 -186 114 -43 18 -66 34 -65 44 1 8 -2 15 -7
15 -5 0 -9 -4 -9 -10 0 -12 -50 -13 -68 -1 -10 6 -9 11 4 22 14 11 18 12 22 1
3 -10 9 -9 25 5 12 10 17 12 12 4 -6 -11 -4 -13 10 -8 9 4 23 3 29 -1 20 -17
65 -20 77 -6 6 8 15 11 20 8 5 -3 9 -3 9 0 0 3 -12 12 -27 21 -27 15 -27 16
-3 9 40 -11 141 -64 195 -102 100 -73 138 -109 197 -187 67 -89 89 -127 134
-233 17 -40 33 -69 37 -66 3 3 3 -5 0 -18 -4 -19 -3 -20 6 -8 9 12 10 9 5 -14
-5 -19 -3 -27 3 -23 14 9 28 -21 31 -66 1 -10 7 -17 14 -15 8 3 13 32 15 84 1
43 5 93 9 109 7 31 8 126 3 248 -1 38 2 72 7 75 14 9 15 52 2 52 -6 0 -7 8 -3
18 3 9 7 21 8 27 1 5 7 14 13 20 16 15 38 132 37 197 -1 32 3 60 8 64 5 3 7 9
4 13 -4 8 5 73 21 146 9 41 10 143 1 151 -3 4 -41 -28 -84 -69 -232 -227 -416
-310 -693 -311 -133 0 -196 10 -325 51 -101 33 -151 58 -245 124 -244 172
-443 491 -499 801 -13 71 -23 255 -12 213 5 -20 8 2 8 70 0 62 5 111 13 130 8
17 14 38 15 48 2 19 12 33 19 26 2 -2 0 -44 -6 -94 -19 -168 3 -417 46 -520 9
-20 16 -37 16 -40 4 -20 43 -95 54 -104 18 -15 46 -4 46 19 0 10 -10 64 -22
121 -19 87 -23 135 -23 289 1 161 4 196 24 270 21 79 72 219 96 265 26 51 131
198 184 260 55 63 164 155 185 155 5 0 7 2 4 5 -3 3 -17 1 -30 -4 -18 -7 -139
3 -419 35 -457 51 -545 54 -639 21z m1290 -2202 c0 -8 -7 -15 -15 -15 -13 0
-14 3 -3 15 16 18 18 18 18 0z m75 5 c8 -13 -5 -13 -25 0 -13 8 -13 10 2 10 9
0 20 -4 23 -10z m62 -16 c0 -7 -6 -10 -14 -7 -7 3 -13 8 -13 12 0 4 6 8 13 8
8 0 14 -6 14 -13z m68 -4 c13 -5 14 -9 5 -9 -8 0 -24 4 -35 9 -13 5 -14 9 -5
9 8 0 24 -4 35 -9z m-531 -42 c-3 -5 -15 -8 -25 -5 -19 5 -86 -48 -81 -65 2
-8 -12 -12 -35 -9 -7 1 -13 -4 -13 -10 0 -7 -3 -9 -6 -6 -4 3 -22 -7 -41 -22
-21 -17 -42 -27 -54 -24 -14 4 -16 8 -6 17 40 40 185 125 224 130 7 1 15 5 19
9 10 10 25 -3 18 -15z m395 19 c-2 -1 -12 -9 -22 -16 -15 -12 -17 -12 -11 3 3
9 13 16 22 16 8 0 13 -1 11 -3z m-706 -238 c10 -7 -7 -46 -32 -69 -9 -8 -17
-21 -19 -28 -1 -7 -12 -23 -23 -35 -11 -12 -23 -34 -26 -49 -3 -16 -9 -28 -13
-28 -5 0 -14 -17 -20 -37 -6 -21 -15 -47 -20 -58 -5 -11 -12 -33 -16 -50 -4
-16 -9 -37 -11 -45 -2 -8 -7 -71 -11 -140 -7 -123 -4 -152 29 -295 14 -58 82
-213 119 -269 45 -69 50 -80 40 -90 -6 -6 -10 -21 -10 -36 l0 -25 -20 25
c-101 126 -184 313 -209 470 -33 205 12 474 106 622 12 21 23 40 23 43 0 7 46
71 74 103 14 16 22 19 25 10 2 -7 8 -16 14 -19z m1502 -869 c3 -5 -1 -10 -9
-10 -9 0 -16 5 -16 10 0 6 4 10 9 10 6 0 13 -4 16 -10z m-28 -62 c-3 -8 -6 -5
-6 6 -1 11 2 17 5 13 3 -3 4 -12 1 -19z m-742 -816 c17 21 34 38 38 38 11 0
-3 -92 -15 -105 -7 -7 -9 5 -5 35 l5 45 -32 -37 c-18 -21 -36 -38 -40 -38 -3
0 -6 14 -6 32 l0 32 -47 -46 c-45 -43 -137 -98 -165 -98 -7 0 14 13 47 29 65
31 103 63 150 125 l30 40 5 -45 5 -44 30 37z m-197 14 c19 -17 22 -18 22 -3 0
9 7 17 15 17 11 0 15 -12 15 -45 0 -48 -16 -59 -40 -30 -15 19 -30 19 -30 2 0
-9 -12 -14 -30 -15 -28 -1 -30 1 -30 38 0 32 -3 38 -16 33 -13 -5 -13 -7 -2
-14 11 -7 10 -11 -2 -19 -10 -6 -11 -10 -2 -10 6 0 12 -7 12 -15 0 -9 -9 -15
-25 -15 -22 0 -25 4 -25 35 0 44 -18 46 -22 3 -4 -42 -21 -39 -28 4 -4 26 -10
34 -30 36 l-25 4 22 -21 c32 -31 9 -70 -32 -55 -23 9 -18 24 8 24 l22 0 -24
19 c-16 12 -22 24 -18 36 6 15 21 16 124 14 101 -3 121 -6 141 -23z m288 -55
l-6 -26 23 28 c12 15 26 27 29 27 3 0 3 -12 -1 -27 -6 -22 -14 -29 -40 -31
-19 -2 -38 1 -43 6 -13 13 6 49 27 49 12 0 15 -7 11 -26z m81 9 c-3 -11 -2
-20 2 -20 5 0 16 9 26 20 20 22 35 26 35 10 0 -5 -7 -10 -15 -10 -8 0 -15 -8
-15 -17 0 -13 3 -14 12 -5 17 17 33 15 19 -2 -18 -22 -91 -19 -91 3 0 15 18
41 28 41 2 0 2 -9 -1 -20z"/>
<path d="M4635 4223 c6 -6 35 -28 65 -50 114 -83 245 -221 298 -314 50 -88 65
-109 73 -103 6 3 8 83 6 196 -5 241 4 228 -187 251 -220 27 -266 30 -255 20z"/>
<path d="M3191 3374 c0 -11 3 -14 6 -6 3 7 2 16 -1 19 -3 4 -6 -2 -5 -13z"/>
<path d="M3883 3363 c-40 -8 -73 -48 -73 -91 0 -89 55 -199 119 -236 33 -19
33 -19 77 2 130 63 117 251 -21 313 -39 18 -59 20 -102 12z"/>
<path d="M3936 1919 c-52 -12 -154 -63 -191 -95 -26 -23 -27 -24 -4 -11 47 28
195 69 235 65 39 -4 61 -28 25 -28 -12 0 -21 -4 -21 -10 0 -5 5 -10 10 -10 17
0 11 -36 -11 -61 -11 -13 -28 -33 -38 -44 -9 -11 -46 -45 -81 -75 -85 -73
-150 -141 -150 -157 0 -18 0 -19 -11 -55 -19 -61 -21 -73 -26 -148 -3 -47 0
-92 8 -120 7 -25 13 -48 13 -52 1 -3 21 -36 45 -73 53 -79 132 -159 221 -223
36 -26 73 -55 82 -65 10 -9 22 -17 27 -17 5 0 11 -9 14 -20 3 -11 0 -20 -6
-20 -22 0 2 -11 33 -15 94 -12 -4 -30 -121 -22 -49 3 -89 4 -89 2 0 -2 26 -11
58 -21 37 -11 90 -17 152 -18 84 0 105 4 177 33 148 58 249 151 321 293 126
250 80 553 -114 766 -79 86 -178 155 -272 188 -53 18 -86 23 -157 23 -49 -1
-108 -5 -129 -10z m109 -585 c45 -49 45 -130 -1 -179 -18 -20 -30 -25 -47 -20
-37 12 -46 27 -52 90 -12 116 41 173 100 109z"/>
<path d="M4495 1891 c17 -18 44 -47 60 -65 17 -17 45 -49 63 -71 l33 -40 -30
41 c-35 47 -38 56 -16 48 23 -9 65 23 65 50 0 30 -29 56 -63 56 -20 0 -28 -7
-38 -35 l-13 -35 -45 42 c-31 29 -36 32 -16 9z"/>
<path d="M4686 1637 c3 -10 9 -15 12 -12 3 3 0 11 -7 18 -10 9 -11 8 -5 -6z"/>
<path d="M4821 1564 c0 -11 3 -14 6 -6 3 7 2 16 -1 19 -3 4 -6 -2 -5 -13z"/>
<path d="M4830 1530 c0 -8 5 -31 11 -50 11 -36 13 -52 24 -160 9 -83 9 -129 2
-210 -5 -52 -5 -59 4 -35 6 17 12 78 15 136 2 59 6 114 9 123 3 9 7 23 10 32
3 8 0 12 -5 9 -6 -3 -10 -16 -11 -28 0 -12 -10 20 -20 72 -19 91 -38 145 -39
111z"/>
<path d="M4881 1464 c0 -11 3 -14 6 -6 3 7 2 16 -1 19 -3 4 -6 -2 -5 -13z"/>
<path d="M4887 1423 c-4 -3 -7 -11 -7 -17 0 -6 5 -5 12 2 6 6 9 14 7 17 -3 3
-9 2 -12 -2z"/>
<path d="M4900 1225 c0 -32 3 -56 6 -52 8 7 7 97 -1 105 -3 3 -5 -21 -5 -53z"/>
<path d="M4920 1090 c0 -5 5 -10 11 -10 5 0 7 5 4 10 -3 6 -8 10 -11 10 -2 0
-4 -4 -4 -10z"/>
<path d="M4831 944 c0 -11 3 -14 6 -6 3 7 2 16 -1 19 -3 4 -6 -2 -5 -13z"/>
</g>
</svg>
